<?xml version="1.0" standalone="no"?>
<!DOCTYPE svg PUBLIC "-//W3C//DTD SVG 20010904//EN"
 "http://www.w3.org/TR/2001/REC-SVG-20010904/DTD/svg10.dtd">
<svg version="1.0" xmlns="http://www.w3.org/2000/svg"
 width="1024.000000pt" height="1024.000000pt" viewBox="0 0 1024.000000 1024.000000"
 preserveAspectRatio="xMidYMid meet">
<metadata>
Created by potrace 1.11, written by Peter Selinger 2001-2013
</metadata>
<g transform="translate(0.000000,1024.000000) scale(0.100000,-0.100000)"
fill="#000000" stroke="none">
<path d="M0 5120 l0 -5120 5120 0 5120 0 0 5120 0 5120 -5120 0 -5120 0 0
-5120z m6475 4135 l0 -450 -1315 0 -1315 0 -3 440 c-1 242 0 446 3 453 3 10
272 12 1317 10 l1313 -3 0 -450z m-1014 -935 c757 -59 1429 -306 2057 -756
l53 -38 312 312 312 312 330 -330 330 -330 -303 -303 c-166 -166 -302 -306
-302 -310 0 -4 35 -54 78 -110 386 -508 642 -1098 752 -1732 63 -365 69 -844
14 -1225 -128 -896 -563 -1724 -1229 -2340 -594 -549 -1330 -900 -2125 -1014
-382 -55 -859 -49 -1225 14 -1114 194 -2074 835 -2685 1792 -162 254 -333 622
-424 913 -195 618 -236 1268 -121 1907 51 280 137 568 252 842 389 924 1165
1700 2089 2089 418 176 845 277 1314 310 110 8 398 6 521 -3z"/>
<path d="M4920 7459 c-252 -22 -557 -89 -795 -174 -181 -64 -484 -216 -645
-323 -470 -312 -829 -719 -1075 -1217 -144 -291 -227 -546 -279 -855 -124
-732 18 -1484 396 -2111 233 -386 560 -730 928 -976 432 -289 911 -461 1429
-513 132 -13 459 -13 592 0 729 72 1380 380 1894 895 481 480 770 1056 877
1740 25 166 36 557 19 730 -96 991 -637 1853 -1486 2370 -543 330 -1221 489
-1855 434z m420 -589 c311 -89 521 -366 521 -690 0 -320 -188 -580 -496 -687
-73 -25 -93 -27 -220 -27 -127 0 -147 2 -220 27 -306 106 -496 367 -496 682 0
171 51 322 152 447 118 147 264 232 469 272 53 10 217 -3 290 -24z m744 -1568
c4 -6 -393 -3038 -430 -3289 l-6 -43 -488 0 -488 0 -6 38 c-42 260 -474 3287
-470 3294 7 10 1881 11 1888 0z m-2104 -655 c0 -2 36 -254 80 -561 44 -307 77
-562 74 -567 -5 -9 -854 -13 -854 -5 0 2 -40 255 -90 562 -49 306 -87 561 -84
566 5 7 874 12 874 5z m3194 -5 c3 -5 -35 -260 -84 -566 -50 -307 -90 -560
-90 -562 0 -8 -849 -4 -854 5 -3 5 30 260 74 567 44 307 80 559 80 561 0 7
869 2 874 -5z"/>
</g>
</svg>
